<mxfile host="app.diagrams.net" modified="2023-11-24T02:44:44.808Z" agent="Mozilla/5.0 (Macintosh; Intel Mac OS X 10_15_7) AppleWebKit/537.36 (KHTML, like Gecko) Chrome/119.0.0.0 Safari/537.36" etag="V1r-eCnvWH3bo06jbHHn" version="22.1.3" type="device">
  <diagram name="Page-1" id="KexDCUkcUmnVTUItNKQy">
    <mxGraphModel dx="795" dy="463" grid="1" gridSize="10" guides="1" tooltips="1" connect="1" arrows="1" fold="1" page="1" pageScale="1" pageWidth="1400" pageHeight="850" math="0" shadow="0">
      <root>
        <mxCell id="0" />
        <mxCell id="1" parent="0" />
        <mxCell id="JFHQrs-vCwzhT06aBupK-2" value="Show" style="rounded=1;whiteSpace=wrap;html=1;fontFamily=Courier New;" vertex="1" parent="1">
          <mxGeometry x="780.94" y="530" width="120" height="60" as="geometry" />
        </mxCell>
        <mxCell id="JFHQrs-vCwzhT06aBupK-6" value="&lt;font style=&quot;font-size: 24px;&quot;&gt;&lt;span style=&quot;font-weight: normal;&quot;&gt;Cirque du Soleil&lt;/span&gt;&lt;/font&gt;" style="rounded=1;whiteSpace=wrap;html=1;fontStyle=1;fontFamily=Courier New;" vertex="1" parent="1">
          <mxGeometry x="700.94" y="720" width="280" height="80" as="geometry" />
        </mxCell>
        <mxCell id="JFHQrs-vCwzhT06aBupK-9" value="Emergency Contact" style="rounded=1;whiteSpace=wrap;html=1;fontFamily=Courier New;" vertex="1" parent="1">
          <mxGeometry x="560.94" y="160" width="120" height="60" as="geometry" />
        </mxCell>
        <mxCell id="JFHQrs-vCwzhT06aBupK-10" value="&lt;font&gt;Hosts&lt;/font&gt;" style="rhombus;whiteSpace=wrap;html=1;fontFamily=Courier New;" vertex="1" parent="1">
          <mxGeometry x="815.94" y="620" width="50" height="60" as="geometry" />
        </mxCell>
        <mxCell id="JFHQrs-vCwzhT06aBupK-11" value="" style="endArrow=none;html=1;rounded=0;exitX=0.49;exitY=-0.006;exitDx=0;exitDy=0;entryX=0.44;entryY=0.952;entryDx=0;entryDy=0;entryPerimeter=0;exitPerimeter=0;fontFamily=Courier New;" edge="1" parent="1" source="JFHQrs-vCwzhT06aBupK-6" target="JFHQrs-vCwzhT06aBupK-10">
          <mxGeometry width="50" height="50" relative="1" as="geometry">
            <mxPoint x="830.94" y="720" as="sourcePoint" />
            <mxPoint x="830.94" y="680" as="targetPoint" />
          </mxGeometry>
        </mxCell>
        <mxCell id="JFHQrs-vCwzhT06aBupK-12" value="" style="endArrow=none;html=1;rounded=0;exitX=0.5;exitY=0;exitDx=0;exitDy=0;entryX=0.5;entryY=1;entryDx=0;entryDy=0;fontFamily=Courier New;" edge="1" parent="1" source="JFHQrs-vCwzhT06aBupK-6" target="JFHQrs-vCwzhT06aBupK-10">
          <mxGeometry width="50" height="50" relative="1" as="geometry">
            <mxPoint x="845.94" y="730" as="sourcePoint" />
            <mxPoint x="844.94" y="683" as="targetPoint" />
          </mxGeometry>
        </mxCell>
        <mxCell id="JFHQrs-vCwzhT06aBupK-13" value="" style="endArrow=none;html=1;rounded=0;entryX=0.5;entryY=1;entryDx=0;entryDy=0;fontFamily=Courier New;" edge="1" parent="1" target="JFHQrs-vCwzhT06aBupK-2">
          <mxGeometry width="50" height="50" relative="1" as="geometry">
            <mxPoint x="840.94" y="620" as="sourcePoint" />
            <mxPoint x="890.94" y="570" as="targetPoint" />
          </mxGeometry>
        </mxCell>
        <mxCell id="JFHQrs-vCwzhT06aBupK-14" value="1" style="text;html=1;strokeColor=none;fillColor=none;align=center;verticalAlign=middle;whiteSpace=wrap;rounded=0;fontFamily=Courier New;" vertex="1" parent="1">
          <mxGeometry x="820.94" y="690" width="60" height="30" as="geometry" />
        </mxCell>
        <mxCell id="JFHQrs-vCwzhT06aBupK-16" value="N" style="text;html=1;strokeColor=none;fillColor=none;align=center;verticalAlign=middle;whiteSpace=wrap;rounded=0;fontFamily=Courier New;" vertex="1" parent="1">
          <mxGeometry x="830.94" y="590" width="60" height="30" as="geometry" />
        </mxCell>
        <mxCell id="JFHQrs-vCwzhT06aBupK-18" value="" style="group;fontFamily=Courier New;" vertex="1" connectable="0" parent="1">
          <mxGeometry x="980.94" y="300" width="120" height="60" as="geometry" />
        </mxCell>
        <mxCell id="JFHQrs-vCwzhT06aBupK-3" value="" style="rounded=1;whiteSpace=wrap;html=1;fontFamily=Courier New;" vertex="1" parent="JFHQrs-vCwzhT06aBupK-18">
          <mxGeometry width="120" height="60" as="geometry" />
        </mxCell>
        <mxCell id="JFHQrs-vCwzhT06aBupK-17" value="Venue" style="rounded=1;whiteSpace=wrap;html=1;fontFamily=Courier New;" vertex="1" parent="JFHQrs-vCwzhT06aBupK-18">
          <mxGeometry x="5" y="5" width="110" height="50" as="geometry" />
        </mxCell>
        <mxCell id="JFHQrs-vCwzhT06aBupK-21" value="" style="group;fontFamily=Courier New;" vertex="1" connectable="0" parent="1">
          <mxGeometry x="560.94" y="300" width="120" height="60" as="geometry" />
        </mxCell>
        <mxCell id="JFHQrs-vCwzhT06aBupK-22" value="" style="rounded=1;whiteSpace=wrap;html=1;fontFamily=Courier New;" vertex="1" parent="JFHQrs-vCwzhT06aBupK-21">
          <mxGeometry width="120" height="60" as="geometry" />
        </mxCell>
        <mxCell id="JFHQrs-vCwzhT06aBupK-23" value="Performer" style="rounded=1;whiteSpace=wrap;html=1;fontFamily=Courier New;" vertex="1" parent="JFHQrs-vCwzhT06aBupK-21">
          <mxGeometry x="5" y="5" width="110" height="50" as="geometry" />
        </mxCell>
        <mxCell id="JFHQrs-vCwzhT06aBupK-25" value="&lt;u&gt;Name&lt;/u&gt;" style="ellipse;whiteSpace=wrap;html=1;fontFamily=Courier New;" vertex="1" parent="1">
          <mxGeometry x="990.94" y="510" width="80" height="40" as="geometry" />
        </mxCell>
        <mxCell id="JFHQrs-vCwzhT06aBupK-26" value="&lt;u&gt;Performance&lt;br&gt;Year&lt;/u&gt;" style="ellipse;whiteSpace=wrap;html=1;fontFamily=Courier New;" vertex="1" parent="1">
          <mxGeometry x="985.94" y="580" width="90" height="55" as="geometry" />
        </mxCell>
        <mxCell id="JFHQrs-vCwzhT06aBupK-27" value="Sponsor" style="ellipse;whiteSpace=wrap;html=1;fontFamily=Courier New;" vertex="1" parent="1">
          <mxGeometry x="610.94" y="580" width="80" height="40" as="geometry" />
        </mxCell>
        <mxCell id="JFHQrs-vCwzhT06aBupK-28" value="Producer" style="ellipse;whiteSpace=wrap;html=1;fontFamily=Courier New;" vertex="1" parent="1">
          <mxGeometry x="610.94" y="510" width="80" height="40" as="geometry" />
        </mxCell>
        <mxCell id="JFHQrs-vCwzhT06aBupK-29" value="" style="endArrow=none;html=1;rounded=0;entryX=0;entryY=0.5;entryDx=0;entryDy=0;fontFamily=Courier New;" edge="1" parent="1" target="JFHQrs-vCwzhT06aBupK-25">
          <mxGeometry width="50" height="50" relative="1" as="geometry">
            <mxPoint x="900.94" y="560" as="sourcePoint" />
            <mxPoint x="950.94" y="510" as="targetPoint" />
          </mxGeometry>
        </mxCell>
        <mxCell id="JFHQrs-vCwzhT06aBupK-30" value="" style="endArrow=none;html=1;rounded=0;entryX=0;entryY=0.5;entryDx=0;entryDy=0;exitX=1;exitY=0.5;exitDx=0;exitDy=0;fontFamily=Courier New;" edge="1" parent="1" source="JFHQrs-vCwzhT06aBupK-2" target="JFHQrs-vCwzhT06aBupK-26">
          <mxGeometry width="50" height="50" relative="1" as="geometry">
            <mxPoint x="910.94" y="570" as="sourcePoint" />
            <mxPoint x="1000.94" y="540" as="targetPoint" />
          </mxGeometry>
        </mxCell>
        <mxCell id="JFHQrs-vCwzhT06aBupK-31" value="" style="endArrow=none;html=1;rounded=0;entryX=0;entryY=0.5;entryDx=0;entryDy=0;exitX=1;exitY=0.5;exitDx=0;exitDy=0;fontFamily=Courier New;" edge="1" parent="1" source="JFHQrs-vCwzhT06aBupK-28" target="JFHQrs-vCwzhT06aBupK-2">
          <mxGeometry width="50" height="50" relative="1" as="geometry">
            <mxPoint x="920.94" y="580" as="sourcePoint" />
            <mxPoint x="1010.94" y="550" as="targetPoint" />
          </mxGeometry>
        </mxCell>
        <mxCell id="JFHQrs-vCwzhT06aBupK-32" value="" style="endArrow=none;html=1;rounded=0;entryX=0;entryY=0.5;entryDx=0;entryDy=0;exitX=1;exitY=0.5;exitDx=0;exitDy=0;fontFamily=Courier New;" edge="1" parent="1" source="JFHQrs-vCwzhT06aBupK-27" target="JFHQrs-vCwzhT06aBupK-2">
          <mxGeometry width="50" height="50" relative="1" as="geometry">
            <mxPoint x="700.94" y="540" as="sourcePoint" />
            <mxPoint x="790.94" y="570" as="targetPoint" />
          </mxGeometry>
        </mxCell>
        <mxCell id="JFHQrs-vCwzhT06aBupK-33" value="" style="endArrow=none;html=1;rounded=0;entryX=0.5;entryY=1;entryDx=0;entryDy=0;fontFamily=Courier New;" edge="1" parent="1" target="JFHQrs-vCwzhT06aBupK-34">
          <mxGeometry width="50" height="50" relative="1" as="geometry">
            <mxPoint x="840.94" y="530" as="sourcePoint" />
            <mxPoint x="890.94" y="480" as="targetPoint" />
          </mxGeometry>
        </mxCell>
        <mxCell id="JFHQrs-vCwzhT06aBupK-34" value="Held&lt;br style=&quot;font-size: 10px;&quot;&gt;at" style="rhombus;whiteSpace=wrap;html=1;fontSize=10;fontFamily=Courier New;" vertex="1" parent="1">
          <mxGeometry x="930.94" y="410" width="60" height="60" as="geometry" />
        </mxCell>
        <mxCell id="JFHQrs-vCwzhT06aBupK-35" value="" style="endArrow=none;html=1;rounded=0;exitX=0.5;exitY=0;exitDx=0;exitDy=0;entryX=0.5;entryY=1;entryDx=0;entryDy=0;fontFamily=Courier New;" edge="1" parent="1" source="JFHQrs-vCwzhT06aBupK-34" target="JFHQrs-vCwzhT06aBupK-3">
          <mxGeometry width="50" height="50" relative="1" as="geometry">
            <mxPoint x="930.94" y="420" as="sourcePoint" />
            <mxPoint x="980.94" y="370" as="targetPoint" />
          </mxGeometry>
        </mxCell>
        <mxCell id="JFHQrs-vCwzhT06aBupK-36" value="" style="endArrow=none;html=1;rounded=0;entryX=0.5;entryY=1;entryDx=0;entryDy=0;exitX=0.5;exitY=0;exitDx=0;exitDy=0;fontFamily=Courier New;" edge="1" parent="1" target="JFHQrs-vCwzhT06aBupK-37" source="JFHQrs-vCwzhT06aBupK-2">
          <mxGeometry width="50" height="50" relative="1" as="geometry">
            <mxPoint x="690.94" y="569.9999999999999" as="sourcePoint" />
            <mxPoint x="590.94" y="480" as="targetPoint" />
          </mxGeometry>
        </mxCell>
        <mxCell id="JFHQrs-vCwzhT06aBupK-37" value="Performs&lt;br style=&quot;font-size: 8px;&quot;&gt;in" style="rhombus;whiteSpace=wrap;html=1;fontSize=8;fontFamily=Courier New;" vertex="1" parent="1">
          <mxGeometry x="680.94" y="410" width="60" height="60" as="geometry" />
        </mxCell>
        <mxCell id="JFHQrs-vCwzhT06aBupK-38" value="" style="endArrow=none;html=1;rounded=0;exitX=0.5;exitY=0;exitDx=0;exitDy=0;entryX=0.5;entryY=1;entryDx=0;entryDy=0;fontFamily=Courier New;" edge="1" parent="1" source="JFHQrs-vCwzhT06aBupK-37" target="JFHQrs-vCwzhT06aBupK-22">
          <mxGeometry width="50" height="50" relative="1" as="geometry">
            <mxPoint x="630.94" y="420" as="sourcePoint" />
            <mxPoint x="740.94" y="360" as="targetPoint" />
          </mxGeometry>
        </mxCell>
        <mxCell id="JFHQrs-vCwzhT06aBupK-39" value="Date" style="ellipse;whiteSpace=wrap;html=1;container=0;fontFamily=Courier New;" vertex="1" parent="1">
          <mxGeometry x="800.94" y="217.27272727272728" width="73.125" height="32.72727272727273" as="geometry" />
        </mxCell>
        <mxCell id="JFHQrs-vCwzhT06aBupK-40" value="Location" style="ellipse;whiteSpace=wrap;html=1;container=0;fontFamily=Courier New;" vertex="1" parent="1">
          <mxGeometry x="906.565" y="217.27272727272728" width="73.125" height="32.72727272727273" as="geometry" />
        </mxCell>
        <mxCell id="JFHQrs-vCwzhT06aBupK-41" value="&lt;u&gt;Venue ID&lt;/u&gt;" style="ellipse;whiteSpace=wrap;html=1;container=0;fontFamily=Courier New;" vertex="1" parent="1">
          <mxGeometry x="1012.19" y="217.27272727272728" width="73.125" height="32.72727272727273" as="geometry" />
        </mxCell>
        <mxCell id="JFHQrs-vCwzhT06aBupK-42" value="Name" style="ellipse;whiteSpace=wrap;html=1;container=0;fontFamily=Courier New;" vertex="1" parent="1">
          <mxGeometry x="1117.815" y="217.27272727272728" width="73.125" height="32.72727272727273" as="geometry" />
        </mxCell>
        <mxCell id="JFHQrs-vCwzhT06aBupK-43" value="Address" style="ellipse;whiteSpace=wrap;html=1;container=0;fontFamily=Courier New;" vertex="1" parent="1">
          <mxGeometry x="1223.44" y="217.27272727272728" width="73.125" height="32.72727272727273" as="geometry" />
        </mxCell>
        <mxCell id="JFHQrs-vCwzhT06aBupK-44" value="Street Address" style="ellipse;whiteSpace=wrap;html=1;container=0;fontSize=11;fontFamily=Courier New;" vertex="1" parent="1">
          <mxGeometry x="1085.315" y="160" width="73.125" height="32.72727272727273" as="geometry" />
        </mxCell>
        <mxCell id="JFHQrs-vCwzhT06aBupK-45" value="City" style="ellipse;whiteSpace=wrap;html=1;container=0;fontFamily=Courier New;" vertex="1" parent="1">
          <mxGeometry x="1166.565" y="160" width="73.125" height="32.72727272727273" as="geometry" />
        </mxCell>
        <mxCell id="JFHQrs-vCwzhT06aBupK-46" value="Province/State" style="ellipse;whiteSpace=wrap;html=1;container=0;fontSize=10;fontFamily=Courier New;" vertex="1" parent="1">
          <mxGeometry x="1247.815" y="160" width="73.125" height="32.72727272727273" as="geometry" />
        </mxCell>
        <mxCell id="JFHQrs-vCwzhT06aBupK-49" value="Show" style="ellipse;whiteSpace=wrap;html=1;container=0;fontFamily=Courier New;" vertex="1" parent="1">
          <mxGeometry x="340.94" y="152.7327272727273" width="73.125" height="32.72727272727273" as="geometry" />
        </mxCell>
        <mxCell id="JFHQrs-vCwzhT06aBupK-50" value="Performer ID" style="ellipse;whiteSpace=wrap;html=1;container=0;fontSize=11;fontFamily=Courier New;" vertex="1" parent="1">
          <mxGeometry x="340.94" y="202.7327272727273" width="73.125" height="32.72727272727273" as="geometry" />
        </mxCell>
        <mxCell id="JFHQrs-vCwzhT06aBupK-51" value="Name" style="ellipse;whiteSpace=wrap;html=1;container=0;fontFamily=Courier New;" vertex="1" parent="1">
          <mxGeometry x="340.94" y="259.1027272727273" width="73.125" height="32.72727272727273" as="geometry" />
        </mxCell>
        <mxCell id="JFHQrs-vCwzhT06aBupK-52" value="Diet" style="ellipse;whiteSpace=wrap;html=1;container=0;fontFamily=Courier New;" vertex="1" parent="1">
          <mxGeometry x="340.94" y="499.10272727272724" width="73.125" height="32.72727272727273" as="geometry" />
        </mxCell>
        <mxCell id="JFHQrs-vCwzhT06aBupK-53" value="First Name" style="ellipse;whiteSpace=wrap;html=1;container=0;fontFamily=Courier New;" vertex="1" parent="1">
          <mxGeometry x="220" y="240.90272727272728" width="73.125" height="32.72727272727273" as="geometry" />
        </mxCell>
        <mxCell id="JFHQrs-vCwzhT06aBupK-54" value="Last Name" style="ellipse;whiteSpace=wrap;html=1;container=0;fontFamily=Courier New;" vertex="1" parent="1">
          <mxGeometry x="220" y="303.63272727272727" width="73.125" height="32.72727272727273" as="geometry" />
        </mxCell>
        <mxCell id="JFHQrs-vCwzhT06aBupK-55" value="Medications" style="ellipse;whiteSpace=wrap;html=1;container=0;fontFamily=Courier New;" vertex="1" parent="1">
          <mxGeometry x="320" y="430" width="94.07" height="41.83" as="geometry" />
        </mxCell>
        <mxCell id="JFHQrs-vCwzhT06aBupK-56" value="Citizenship" style="ellipse;whiteSpace=wrap;html=1;container=0;fontFamily=Courier New;" vertex="1" parent="1">
          <mxGeometry x="332.96999999999997" y="320.23" width="89.06" height="39.77" as="geometry" />
        </mxCell>
        <mxCell id="JFHQrs-vCwzhT06aBupK-57" value="Birthdate" style="ellipse;whiteSpace=wrap;html=1;container=0;fontFamily=Courier New;" vertex="1" parent="1">
          <mxGeometry x="340.94" y="376.3727272727272" width="73.125" height="32.72727272727273" as="geometry" />
        </mxCell>
        <mxCell id="JFHQrs-vCwzhT06aBupK-59" value="Role" style="ellipse;whiteSpace=wrap;html=1;container=0;fontFamily=Courier New;" vertex="1" parent="1">
          <mxGeometry x="340.94" y="566.8327272727273" width="73.125" height="32.72727272727273" as="geometry" />
        </mxCell>
        <mxCell id="JFHQrs-vCwzhT06aBupK-69" value="&lt;font style=&quot;font-size: 6px;&quot;&gt;Understudy&lt;/font&gt;" style="rhombus;whiteSpace=wrap;html=1;fontFamily=Courier New;" vertex="1" parent="1">
          <mxGeometry x="740.94" y="278.40999999999997" width="49.06" height="105" as="geometry" />
        </mxCell>
        <mxCell id="JFHQrs-vCwzhT06aBupK-70" value="First Name" style="ellipse;whiteSpace=wrap;html=1;container=0;fontFamily=Courier New;" vertex="1" parent="1">
          <mxGeometry x="455.0100000000001" y="50.00272727272728" width="73.125" height="32.72727272727273" as="geometry" />
        </mxCell>
        <mxCell id="JFHQrs-vCwzhT06aBupK-71" value="Last Name" style="ellipse;whiteSpace=wrap;html=1;container=0;fontFamily=Courier New;" vertex="1" parent="1">
          <mxGeometry x="555.0100000000001" y="50.00272727272728" width="73.125" height="32.72727272727273" as="geometry" />
        </mxCell>
        <mxCell id="JFHQrs-vCwzhT06aBupK-72" value="Name" style="ellipse;whiteSpace=wrap;html=1;container=0;fontFamily=Courier New;" vertex="1" parent="1">
          <mxGeometry x="505.0100000000001" y="109.10272727272728" width="73.125" height="32.72727272727273" as="geometry" />
        </mxCell>
        <mxCell id="JFHQrs-vCwzhT06aBupK-73" value="Understudy" style="ellipse;whiteSpace=wrap;html=1;container=0;dashed=1;fontFamily=Courier New;" vertex="1" parent="1">
          <mxGeometry x="330" y="637.02" width="84.07" height="42.98" as="geometry" />
        </mxCell>
        <mxCell id="JFHQrs-vCwzhT06aBupK-74" value="Phone&lt;br&gt;Number" style="ellipse;whiteSpace=wrap;html=1;container=0;fontSize=11;fontFamily=Courier New;" vertex="1" parent="1">
          <mxGeometry x="668.45" y="50.00272727272728" width="73.125" height="32.72727272727273" as="geometry" />
        </mxCell>
        <mxCell id="JFHQrs-vCwzhT06aBupK-75" value="Relationship" style="ellipse;whiteSpace=wrap;html=1;container=0;fontSize=11;fontFamily=Courier New;" vertex="1" parent="1">
          <mxGeometry x="775.0100000000001" y="50" width="99.06" height="39.1" as="geometry" />
        </mxCell>
        <mxCell id="JFHQrs-vCwzhT06aBupK-76" value="Has" style="rhombus;whiteSpace=wrap;html=1;" vertex="1" parent="1">
          <mxGeometry x="595.94" y="240" width="50" height="45" as="geometry" />
        </mxCell>
        <mxCell id="JFHQrs-vCwzhT06aBupK-77" value="1" style="text;html=1;strokeColor=none;fillColor=none;align=center;verticalAlign=middle;whiteSpace=wrap;rounded=0;fontFamily=Courier New;" vertex="1" parent="1">
          <mxGeometry x="770.94" y="505" width="60" height="30" as="geometry" />
        </mxCell>
        <mxCell id="JFHQrs-vCwzhT06aBupK-78" value="N" style="text;html=1;strokeColor=none;fillColor=none;align=center;verticalAlign=middle;whiteSpace=wrap;rounded=0;fontFamily=Courier New;" vertex="1" parent="1">
          <mxGeometry x="595.94" y="360" width="60" height="30" as="geometry" />
        </mxCell>
        <mxCell id="JFHQrs-vCwzhT06aBupK-79" value="" style="endArrow=none;html=1;rounded=0;exitX=0.5;exitY=0;exitDx=0;exitDy=0;entryX=0.5;entryY=1;entryDx=0;entryDy=0;" edge="1" parent="1" source="JFHQrs-vCwzhT06aBupK-76" target="JFHQrs-vCwzhT06aBupK-9">
          <mxGeometry width="50" height="50" relative="1" as="geometry">
            <mxPoint x="670" y="270" as="sourcePoint" />
            <mxPoint x="720" y="220" as="targetPoint" />
          </mxGeometry>
        </mxCell>
        <mxCell id="JFHQrs-vCwzhT06aBupK-80" value="" style="endArrow=none;html=1;rounded=0;exitX=0.5;exitY=0;exitDx=0;exitDy=0;entryX=0.5;entryY=1;entryDx=0;entryDy=0;" edge="1" parent="1" source="JFHQrs-vCwzhT06aBupK-22" target="JFHQrs-vCwzhT06aBupK-76">
          <mxGeometry width="50" height="50" relative="1" as="geometry">
            <mxPoint x="631" y="250" as="sourcePoint" />
            <mxPoint x="631" y="230" as="targetPoint" />
          </mxGeometry>
        </mxCell>
        <mxCell id="JFHQrs-vCwzhT06aBupK-81" value="1" style="text;html=1;strokeColor=none;fillColor=none;align=center;verticalAlign=middle;whiteSpace=wrap;rounded=0;fontFamily=Courier New;fontSize=9;" vertex="1" parent="1">
          <mxGeometry x="595.94" y="273.63" width="60" height="30" as="geometry" />
        </mxCell>
        <mxCell id="JFHQrs-vCwzhT06aBupK-83" value="1" style="text;html=1;strokeColor=none;fillColor=none;align=center;verticalAlign=middle;whiteSpace=wrap;rounded=0;fontFamily=Courier New;fontSize=9;" vertex="1" parent="1">
          <mxGeometry x="595.94" y="220" width="60" height="30" as="geometry" />
        </mxCell>
        <mxCell id="JFHQrs-vCwzhT06aBupK-85" value="" style="endArrow=none;html=1;rounded=0;entryX=0.5;entryY=0;entryDx=0;entryDy=0;exitX=1;exitY=0.5;exitDx=0;exitDy=0;" edge="1" parent="1" source="JFHQrs-vCwzhT06aBupK-22" target="JFHQrs-vCwzhT06aBupK-69">
          <mxGeometry width="50" height="50" relative="1" as="geometry">
            <mxPoint x="680" y="300" as="sourcePoint" />
            <mxPoint x="730" y="250" as="targetPoint" />
          </mxGeometry>
        </mxCell>
        <mxCell id="JFHQrs-vCwzhT06aBupK-86" value="" style="endArrow=none;html=1;rounded=0;exitX=1;exitY=0.5;exitDx=0;exitDy=0;entryX=0.5;entryY=1;entryDx=0;entryDy=0;" edge="1" parent="1" source="JFHQrs-vCwzhT06aBupK-22" target="JFHQrs-vCwzhT06aBupK-69">
          <mxGeometry width="50" height="50" relative="1" as="geometry">
            <mxPoint x="690" y="380" as="sourcePoint" />
            <mxPoint x="740" y="330" as="targetPoint" />
          </mxGeometry>
        </mxCell>
        <mxCell id="JFHQrs-vCwzhT06aBupK-88" value="" style="endArrow=none;html=1;rounded=0;exitX=0.5;exitY=0;exitDx=0;exitDy=0;entryX=0.5;entryY=1;entryDx=0;entryDy=0;" edge="1" parent="1" source="JFHQrs-vCwzhT06aBupK-9" target="JFHQrs-vCwzhT06aBupK-72">
          <mxGeometry width="50" height="50" relative="1" as="geometry">
            <mxPoint x="650" y="150" as="sourcePoint" />
            <mxPoint x="700" y="100" as="targetPoint" />
          </mxGeometry>
        </mxCell>
        <mxCell id="JFHQrs-vCwzhT06aBupK-89" value="" style="endArrow=none;html=1;rounded=0;exitX=0.5;exitY=0;exitDx=0;exitDy=0;entryX=0.5;entryY=1;entryDx=0;entryDy=0;" edge="1" parent="1" source="JFHQrs-vCwzhT06aBupK-72" target="JFHQrs-vCwzhT06aBupK-70">
          <mxGeometry width="50" height="50" relative="1" as="geometry">
            <mxPoint x="340" y="110" as="sourcePoint" />
            <mxPoint x="390" y="60" as="targetPoint" />
          </mxGeometry>
        </mxCell>
        <mxCell id="JFHQrs-vCwzhT06aBupK-90" value="" style="endArrow=none;html=1;rounded=0;exitX=0.5;exitY=0;exitDx=0;exitDy=0;entryX=0.5;entryY=1;entryDx=0;entryDy=0;" edge="1" parent="1" source="JFHQrs-vCwzhT06aBupK-72" target="JFHQrs-vCwzhT06aBupK-71">
          <mxGeometry width="50" height="50" relative="1" as="geometry">
            <mxPoint x="552" y="119" as="sourcePoint" />
            <mxPoint x="502" y="93" as="targetPoint" />
          </mxGeometry>
        </mxCell>
        <mxCell id="JFHQrs-vCwzhT06aBupK-91" value="" style="endArrow=none;html=1;rounded=0;exitX=0.5;exitY=0;exitDx=0;exitDy=0;entryX=0.5;entryY=1;entryDx=0;entryDy=0;" edge="1" parent="1" source="JFHQrs-vCwzhT06aBupK-9" target="JFHQrs-vCwzhT06aBupK-74">
          <mxGeometry width="50" height="50" relative="1" as="geometry">
            <mxPoint x="562" y="129" as="sourcePoint" />
            <mxPoint x="512" y="103" as="targetPoint" />
          </mxGeometry>
        </mxCell>
        <mxCell id="JFHQrs-vCwzhT06aBupK-92" value="" style="endArrow=none;html=1;rounded=0;exitX=0.5;exitY=0;exitDx=0;exitDy=0;entryX=0.5;entryY=1;entryDx=0;entryDy=0;" edge="1" parent="1" source="JFHQrs-vCwzhT06aBupK-9" target="JFHQrs-vCwzhT06aBupK-75">
          <mxGeometry width="50" height="50" relative="1" as="geometry">
            <mxPoint x="631" y="170" as="sourcePoint" />
            <mxPoint x="715" y="93" as="targetPoint" />
          </mxGeometry>
        </mxCell>
        <mxCell id="JFHQrs-vCwzhT06aBupK-93" value="" style="endArrow=none;html=1;rounded=0;entryX=0;entryY=0.5;entryDx=0;entryDy=0;exitX=1;exitY=0.5;exitDx=0;exitDy=0;" edge="1" parent="1" source="JFHQrs-vCwzhT06aBupK-49" target="JFHQrs-vCwzhT06aBupK-22">
          <mxGeometry width="50" height="50" relative="1" as="geometry">
            <mxPoint x="460" y="240" as="sourcePoint" />
            <mxPoint x="510" y="190" as="targetPoint" />
          </mxGeometry>
        </mxCell>
        <mxCell id="JFHQrs-vCwzhT06aBupK-94" value="" style="endArrow=none;html=1;rounded=0;exitX=1;exitY=0.5;exitDx=0;exitDy=0;" edge="1" parent="1" source="JFHQrs-vCwzhT06aBupK-51">
          <mxGeometry width="50" height="50" relative="1" as="geometry">
            <mxPoint x="450" y="330" as="sourcePoint" />
            <mxPoint x="560" y="330" as="targetPoint" />
          </mxGeometry>
        </mxCell>
        <mxCell id="JFHQrs-vCwzhT06aBupK-95" value="" style="endArrow=none;html=1;rounded=0;entryX=0;entryY=0.5;entryDx=0;entryDy=0;exitX=1;exitY=0.5;exitDx=0;exitDy=0;" edge="1" parent="1" source="JFHQrs-vCwzhT06aBupK-56" target="JFHQrs-vCwzhT06aBupK-22">
          <mxGeometry width="50" height="50" relative="1" as="geometry">
            <mxPoint x="450" y="386.37" as="sourcePoint" />
            <mxPoint x="597" y="547.37" as="targetPoint" />
          </mxGeometry>
        </mxCell>
        <mxCell id="JFHQrs-vCwzhT06aBupK-96" value="" style="endArrow=none;html=1;rounded=0;exitX=1;exitY=0.5;exitDx=0;exitDy=0;" edge="1" parent="1" source="JFHQrs-vCwzhT06aBupK-50">
          <mxGeometry width="50" height="50" relative="1" as="geometry">
            <mxPoint x="444" y="199" as="sourcePoint" />
            <mxPoint x="560" y="330" as="targetPoint" />
          </mxGeometry>
        </mxCell>
        <mxCell id="JFHQrs-vCwzhT06aBupK-97" value="" style="endArrow=none;html=1;rounded=0;entryX=0;entryY=0.5;entryDx=0;entryDy=0;exitX=1;exitY=0.5;exitDx=0;exitDy=0;" edge="1" parent="1" source="JFHQrs-vCwzhT06aBupK-57" target="JFHQrs-vCwzhT06aBupK-22">
          <mxGeometry width="50" height="50" relative="1" as="geometry">
            <mxPoint x="432" y="350" as="sourcePoint" />
            <mxPoint x="571" y="340" as="targetPoint" />
          </mxGeometry>
        </mxCell>
        <mxCell id="JFHQrs-vCwzhT06aBupK-98" value="" style="endArrow=none;html=1;rounded=0;entryX=0;entryY=0.5;entryDx=0;entryDy=0;exitX=1;exitY=0.5;exitDx=0;exitDy=0;" edge="1" parent="1" source="JFHQrs-vCwzhT06aBupK-55" target="JFHQrs-vCwzhT06aBupK-22">
          <mxGeometry width="50" height="50" relative="1" as="geometry">
            <mxPoint x="424" y="403" as="sourcePoint" />
            <mxPoint x="571" y="340" as="targetPoint" />
          </mxGeometry>
        </mxCell>
        <mxCell id="JFHQrs-vCwzhT06aBupK-99" value="" style="endArrow=none;html=1;rounded=0;exitX=1;exitY=0.5;exitDx=0;exitDy=0;" edge="1" parent="1" source="JFHQrs-vCwzhT06aBupK-52">
          <mxGeometry width="50" height="50" relative="1" as="geometry">
            <mxPoint x="424" y="461" as="sourcePoint" />
            <mxPoint x="560" y="330" as="targetPoint" />
          </mxGeometry>
        </mxCell>
        <mxCell id="JFHQrs-vCwzhT06aBupK-100" value="" style="endArrow=none;html=1;rounded=0;exitX=1;exitY=0.5;exitDx=0;exitDy=0;" edge="1" parent="1" source="JFHQrs-vCwzhT06aBupK-59">
          <mxGeometry width="50" height="50" relative="1" as="geometry">
            <mxPoint x="424" y="525" as="sourcePoint" />
            <mxPoint x="560" y="330" as="targetPoint" />
          </mxGeometry>
        </mxCell>
        <mxCell id="JFHQrs-vCwzhT06aBupK-101" value="" style="endArrow=none;html=1;rounded=0;exitX=1;exitY=0.5;exitDx=0;exitDy=0;" edge="1" parent="1" source="JFHQrs-vCwzhT06aBupK-73">
          <mxGeometry width="50" height="50" relative="1" as="geometry">
            <mxPoint x="424" y="593" as="sourcePoint" />
            <mxPoint x="560" y="330" as="targetPoint" />
          </mxGeometry>
        </mxCell>
        <mxCell id="JFHQrs-vCwzhT06aBupK-102" value="" style="endArrow=none;html=1;rounded=0;entryX=0;entryY=0.5;entryDx=0;entryDy=0;exitX=1;exitY=0.5;exitDx=0;exitDy=0;" edge="1" parent="1" source="JFHQrs-vCwzhT06aBupK-53" target="JFHQrs-vCwzhT06aBupK-51">
          <mxGeometry width="50" height="50" relative="1" as="geometry">
            <mxPoint x="290" y="330" as="sourcePoint" />
            <mxPoint x="330" y="260" as="targetPoint" />
          </mxGeometry>
        </mxCell>
        <mxCell id="JFHQrs-vCwzhT06aBupK-104" value="" style="endArrow=none;html=1;rounded=0;entryX=0;entryY=0.5;entryDx=0;entryDy=0;exitX=1;exitY=0.5;exitDx=0;exitDy=0;" edge="1" parent="1" source="JFHQrs-vCwzhT06aBupK-54" target="JFHQrs-vCwzhT06aBupK-51">
          <mxGeometry width="50" height="50" relative="1" as="geometry">
            <mxPoint x="303" y="267" as="sourcePoint" />
            <mxPoint x="351" y="285" as="targetPoint" />
          </mxGeometry>
        </mxCell>
        <mxCell id="JFHQrs-vCwzhT06aBupK-105" value="" style="endArrow=none;html=1;rounded=0;entryX=0;entryY=0.5;entryDx=0;entryDy=0;exitX=1;exitY=0.5;exitDx=0;exitDy=0;" edge="1" parent="1" source="JFHQrs-vCwzhT06aBupK-65" target="JFHQrs-vCwzhT06aBupK-59">
          <mxGeometry width="50" height="50" relative="1" as="geometry">
            <mxPoint x="290" y="650" as="sourcePoint" />
            <mxPoint x="340" y="600" as="targetPoint" />
          </mxGeometry>
        </mxCell>
        <mxCell id="JFHQrs-vCwzhT06aBupK-106" value="" style="endArrow=none;html=1;rounded=0;exitX=1;exitY=0.5;exitDx=0;exitDy=0;entryX=0;entryY=0.5;entryDx=0;entryDy=0;" edge="1" parent="1" source="JFHQrs-vCwzhT06aBupK-66" target="JFHQrs-vCwzhT06aBupK-59">
          <mxGeometry width="50" height="50" relative="1" as="geometry">
            <mxPoint x="314" y="520" as="sourcePoint" />
            <mxPoint x="340" y="590" as="targetPoint" />
          </mxGeometry>
        </mxCell>
        <mxCell id="JFHQrs-vCwzhT06aBupK-107" value="" style="endArrow=none;html=1;rounded=0;entryX=0;entryY=0.5;entryDx=0;entryDy=0;exitX=1;exitY=0.5;exitDx=0;exitDy=0;" edge="1" parent="1" source="JFHQrs-vCwzhT06aBupK-67" target="JFHQrs-vCwzhT06aBupK-59">
          <mxGeometry width="50" height="50" relative="1" as="geometry">
            <mxPoint x="250" y="690" as="sourcePoint" />
            <mxPoint x="300" y="640" as="targetPoint" />
          </mxGeometry>
        </mxCell>
        <mxCell id="JFHQrs-vCwzhT06aBupK-110" value="" style="group" vertex="1" connectable="0" parent="1">
          <mxGeometry x="10" y="660.0027272727273" width="224.065" height="150.91727272727275" as="geometry" />
        </mxCell>
        <mxCell id="JFHQrs-vCwzhT06aBupK-63" value="Sport" style="ellipse;whiteSpace=wrap;html=1;container=0;fontFamily=Courier New;" vertex="1" parent="JFHQrs-vCwzhT06aBupK-110">
          <mxGeometry x="10.939999999999998" width="73.125" height="32.72727272727273" as="geometry" />
        </mxCell>
        <mxCell id="JFHQrs-vCwzhT06aBupK-65" value="Aerialist" style="ellipse;whiteSpace=wrap;html=1;container=0;fontFamily=Courier New;" vertex="1" parent="JFHQrs-vCwzhT06aBupK-110">
          <mxGeometry x="150.94" width="73.125" height="32.72727272727273" as="geometry" />
        </mxCell>
        <mxCell id="JFHQrs-vCwzhT06aBupK-66" value="Entertainer" style="ellipse;whiteSpace=wrap;html=1;container=0;fontFamily=Courier New;" vertex="1" parent="JFHQrs-vCwzhT06aBupK-110">
          <mxGeometry x="129.99" y="57.30727272727273" width="94.07" height="39.29" as="geometry" />
        </mxCell>
        <mxCell id="JFHQrs-vCwzhT06aBupK-67" value="Musician" style="ellipse;whiteSpace=wrap;html=1;container=0;fontFamily=Courier New;" vertex="1" parent="JFHQrs-vCwzhT06aBupK-110">
          <mxGeometry x="150.94" y="110.4600000000001" width="73.125" height="32.72727272727273" as="geometry" />
        </mxCell>
        <mxCell id="JFHQrs-vCwzhT06aBupK-68" value="" style="group;fontFamily=Courier New;" vertex="1" connectable="0" parent="JFHQrs-vCwzhT06aBupK-110">
          <mxGeometry y="102.7372727272728" width="95" height="48.17999999999995" as="geometry" />
        </mxCell>
        <mxCell id="JFHQrs-vCwzhT06aBupK-61" value="" style="ellipse;whiteSpace=wrap;html=1;fontFamily=Courier New;" vertex="1" parent="JFHQrs-vCwzhT06aBupK-68">
          <mxGeometry width="95" height="48.18" as="geometry" />
        </mxCell>
        <mxCell id="JFHQrs-vCwzhT06aBupK-60" value="&lt;font style=&quot;font-size: 10px;&quot;&gt;Instrument&lt;/font&gt;" style="ellipse;whiteSpace=wrap;html=1;container=0;fontFamily=Courier New;" vertex="1" parent="JFHQrs-vCwzhT06aBupK-68">
          <mxGeometry x="10.939999999999998" y="7.730000000000018" width="73.13" height="32.73" as="geometry" />
        </mxCell>
        <mxCell id="JFHQrs-vCwzhT06aBupK-108" value="" style="endArrow=none;html=1;rounded=0;entryX=0;entryY=0.5;entryDx=0;entryDy=0;exitX=1;exitY=0.5;exitDx=0;exitDy=0;" edge="1" parent="JFHQrs-vCwzhT06aBupK-110" source="JFHQrs-vCwzhT06aBupK-61" target="JFHQrs-vCwzhT06aBupK-67">
          <mxGeometry width="50" height="50" relative="1" as="geometry">
            <mxPoint x="100" y="127.30727272727273" as="sourcePoint" />
            <mxPoint x="140" y="157.30727272727273" as="targetPoint" />
          </mxGeometry>
        </mxCell>
        <mxCell id="JFHQrs-vCwzhT06aBupK-109" value="" style="endArrow=none;html=1;rounded=0;entryX=0;entryY=0.5;entryDx=0;entryDy=0;exitX=1;exitY=0.5;exitDx=0;exitDy=0;" edge="1" parent="JFHQrs-vCwzhT06aBupK-110" source="JFHQrs-vCwzhT06aBupK-63" target="JFHQrs-vCwzhT06aBupK-65">
          <mxGeometry width="50" height="50" relative="1" as="geometry">
            <mxPoint x="60" y="77.30727272727273" as="sourcePoint" />
            <mxPoint x="110" y="27.307272727272732" as="targetPoint" />
          </mxGeometry>
        </mxCell>
      </root>
    </mxGraphModel>
  </diagram>
</mxfile>
